<svg id="Capa_1" enable-background="new 0 0 512 512" height="512" viewBox="0 0 512 512" width="512" xmlns="http://www.w3.org/2000/svg"><g><g><g><path d="m243.941 69.407c-119.448 0-216.279 96.832-216.279 216.279 0 119.448 96.831 216.279 216.279 216.279 119.447 0 216.279-96.831 216.279-216.279s-96.831-216.279-216.279-216.279zm165.906 216.279c0 22.543-4.505 44.032-12.65 63.628l-123.202-96.361v-130.45c77.278 14.141 135.852 81.819 135.852 163.183zm-197.29-162.928v130.195l-122.194 95.571c-7.939-19.383-12.327-40.597-12.327-62.839 0-80.895 57.902-148.255 134.521-162.927zm-88.609 277.496 88.608-69.303v117.663c-34.533-6.614-65.267-23.922-88.608-48.36zm150.047 48.614v-117.918l89.363 69.894c-23.571 24.437-54.569 41.657-89.363 48.024z" fill="#96b4eb"/></g><g><path d="m124.652 399.704 24.21-18.935c-15.941-13.046-29.088-29.373-38.42-47.949l-23.476 18.361c9.806 15.554 21.616 29.805 33.595 43.742 1.366 1.59 2.728 3.186 4.091 4.781z" fill="#8286ea"/></g><g><path d="m273.995 410.471c-10.314 2.291-21.032 3.509-32.036 3.509-10.069 0-19.902-1.015-29.402-2.942v39.133h61.438z" fill="#8286ea"/></g><g><path d="m243.941 69.407c-3.339 0-6.657.087-9.959.237 104.164 5.018 187.078 91.054 187.078 196.462 0 30.961-7.162 60.246-19.906 86.302l-26.941-21.071c-9.126 18.689-22.095 35.154-37.88 48.371l29.483 23.06c-35.767 37.014-85.92 60.038-141.456 60.038-105.408 0-191.444-82.913-196.462-187.078-.149 3.302-.237 6.62-.237 9.959 0 119.448 96.831 216.279 216.279 216.279 119.447 0 216.279-96.831 216.279-216.279.001-119.449-96.83-216.28-216.278-216.28z" fill="#8286ea"/></g><g><path d="m75.055 2.456 8.244 23.18c.353.992 1.052 1.779 1.933 2.176l20.594 9.279c2.91 1.311 2.91 5.946 0 7.257l-20.594 9.278c-.882.397-1.58 1.184-1.933 2.176l-8.244 23.179c-1.165 3.275-5.283 3.275-6.448 0l-8.243-23.179c-.353-.993-1.052-1.779-1.934-2.176l-20.594-9.278c-2.91-1.311-2.91-5.946 0-7.257l20.594-9.279c.882-.397 1.581-1.184 1.934-2.176l8.243-23.18c1.165-3.275 5.284-3.275 6.448 0z" fill="#c1e5ef"/></g><g><path d="m475.204 104.495 6.115 17.194c.262.736.78 1.319 1.434 1.614l15.276 6.883c2.158.972 2.158 4.411 0 5.383l-15.276 6.883c-.654.295-1.172.878-1.434 1.614l-6.115 17.194c-.864 2.429-3.919 2.429-4.783 0l-6.115-17.194c-.262-.736-.78-1.32-1.434-1.614l-15.276-6.883c-2.158-.972-2.158-4.411 0-5.383l15.276-6.883c.654-.295 1.172-.878 1.434-1.614l6.115-17.194c.864-2.429 3.919-2.429 4.783 0z" fill="#c1e5ef"/></g><g><ellipse cx="381.048" cy="40.615" fill="#96b4eb" rx="18" ry="18" transform="matrix(.16 -.987 .987 .16 279.919 410.237)"/></g><g><ellipse cx="20.117" cy="134.159" fill="#96b4eb" rx="7.765" ry="7.765" transform="matrix(.924 -.383 .383 .924 -49.809 17.911)"/></g></g><g><g><path d="m403.97 125.657c-42.745-42.745-99.578-66.286-160.028-66.286-60.451 0-117.284 23.541-160.029 66.286s-66.286 99.578-66.286 160.029 23.541 117.283 66.286 160.029c42.745 42.744 99.577 66.285 160.029 66.285 60.45 0 117.283-23.541 160.028-66.286s66.286-99.578 66.286-160.029c0-60.45-23.541-117.283-66.286-160.028zm-160.028 366.272c-113.724 0-206.244-92.52-206.244-206.243s92.52-206.244 206.244-206.244c113.723 0 206.243 92.521 206.243 206.244s-92.521 206.243-206.243 206.243z" fill="#3c122c"/></g><g><path d="m243.942 109.744c-97.014 0-175.942 78.927-175.942 175.942 0 97.014 78.928 175.941 175.942 175.941s175.94-78.927 175.94-175.941c0-97.015-78.926-175.942-175.94-175.942zm155.869 175.942c0 16.451-2.57 32.311-7.315 47.21l-108.466-84.835v-113.01c66.582 17.736 115.781 78.543 115.781 150.635zm-197.289-150.274v112.649l-107.406 84.005c-4.577-14.657-7.045-30.235-7.045-46.38 0-71.61 48.544-132.086 114.451-150.274zm0 300.546c-23.869-6.586-45.463-18.712-63.296-34.913l63.296-49.506zm20.071 4.129v-109.137c0-3.838-2.188-7.34-5.638-9.021-3.45-1.68-7.556-1.248-10.58 1.116l-81.177 63.491c-8.961-10.535-16.547-22.272-22.48-34.934l116.023-90.745c2.431-1.902 3.852-4.818 3.852-7.905v-121.668c6.982-.961 14.107-1.469 21.349-1.469 6.781 0 13.462.438 20.017 1.282v121.856c0 3.087 1.421 6.003 3.853 7.905l116.998 91.507c-5.998 12.621-13.641 24.314-22.654 34.798l-81.978-64.117c-3.024-2.364-7.131-2.796-10.58-1.116-3.45 1.682-5.638 5.183-5.638 9.021v109.323c-6.555.844-13.236 1.282-20.017 1.282-7.243 0-14.368-.508-21.35-1.469zm125.44-38.488c-18.045 16.221-39.882 28.296-64.003 34.721v-84.78z" fill="#3c122c"/></g></g></g></svg>